<?xml version="1.0" encoding="UTF-8"?><svg id="Layer_2" xmlns="http://www.w3.org/2000/svg" viewBox="0 0 693.59 172.4"><defs><style>.cls-1,.cls-2{fill:#fff;}.cls-3{fill:#ff324b;}.cls-4{opacity:.7;}.cls-2{fill-rule:evenodd;}</style></defs><g id="Layer_1-2"><g><path class="cls-3" d="m675.59,172.4H0L17.44,0h676.15l-18,172.4Z"/><g><g><g><g><path class="cls-1" d="m432.08,107.47c-.8.15-1.34.91-1.22,1.71.07.79.77,1.38,1.57,1.31.01,0,.02,0,.03,0,1.24-.18,2.49.18,3.44.99,1,.84,1.64,2.03,1.78,3.33.07.79.77,1.38,1.56,1.31,0,0,.02,0,.03,0,.8-.16,1.33-.91,1.21-1.72-.23-2.09-1.26-4-2.87-5.35-1.53-1.29-3.54-1.87-5.53-1.59"/><path class="cls-1" d="m432.68,100.73c-.81.15-1.35.91-1.21,1.72.07.79.77,1.38,1.56,1.31,0,0,.02,0,.02,0,5.23-.56,9.93,3.22,10.5,8.46,0,.07.02.15.02.22.07.79.77,1.38,1.56,1.31,0,0,.02,0,.03,0,.8-.15,1.34-.91,1.21-1.72-.57-6.83-6.57-11.91-13.4-11.34-.1,0-.19.02-.29.03"/></g><g><path class="cls-1" d="m436.44,147.46c-3.89-.06-7.01-3.26-6.95-7.15,0-.07,0-.14,0-.21v-22.11c-.07-.48.27-.93.75-1,.06,0,.12-.01.18,0h1.38c.49-.03.9.33.94.82,0,.06,0,.12,0,.18v22.11c-.15,2.14,1.47,3.99,3.61,4.14.03,0,.07,0,.1,0,.98,0,1.91-.42,2.57-1.14.59-.54,1-.59,1.57-.18l.84.64c.43.33.52.95.19,1.38,0,0-.01.01-.02.02-1.22,1.6-3.12,2.53-5.13,2.5"/><path class="cls-1" d="m400.76,119.14c-1.22-1.6-3.13-2.53-5.14-2.5-1.87-.02-3.66.75-4.93,2.11-1.31,1.44-2.03,3.31-2.01,5.26v1.51c-.16.31-.48.49-.82.46h-.92c-.48-.04-.9.33-.93.81,0,.06,0,.13,0,.19v1c-.07.48.26.92.74.99.06,0,.13.01.19,0h.92c.34-.02.66.16.82.46v16.67c0,.64.33,1,.92,1h1.39c.28.02.54-.1.72-.31.22-.21.34-.5.32-.8v-16.02c-.07-.48.26-.93.75-1,.06,0,.12-.01.18,0h3.53c.48.03.9-.34.93-.82,0-.06,0-.12,0-.18v-1c.07-.48-.27-.92-.74-.99-.06,0-.12-.01-.18,0h-3.52c-.49.03-.9-.35-.93-.83,0-.06,0-.11,0-.17v-1.1c0-1.12.4-2.21,1.16-3.05.65-.63,1.52-.99,2.42-.98.98,0,1.91.42,2.57,1.14.59.55,1.01.59,1.57.18l.09-.07.75-.56c.44-.33.52-.96.19-1.39,0,0-.01-.01-.02-.02"/><path class="cls-1" d="m421.54,119.14c-1.22-1.6-3.12-2.53-5.13-2.5-1.87-.02-3.66.75-4.93,2.11-1.31,1.44-2.03,3.31-2.01,5.26v1.51c-.15.31-.47.49-.81.46h-.93c-.48-.04-.9.33-.94.81,0,.06,0,.12,0,.19v1c-.07.48.27.92.74.99.06,0,.12.01.19,0h.93c.34-.03.66.16.81.46v16.67c-.07.48.27.93.75.99.06,0,.12.01.18,0h1.38c.28.02.55-.1.73-.31.22-.21.34-.5.31-.8v-16.02c-.07-.48.26-.93.75-1,.06,0,.12-.01.18,0h3.11c.48.04.9-.33.94-.81,0-.06,0-.12,0-.19v-1c.07-.48-.27-.92-.74-.99-.06,0-.12-.01-.19,0h-3.11c-.49.03-.9-.34-.93-.83,0-.06,0-.11,0-.17v-1.1c0-1.13.4-2.21,1.16-3.05.65-.64,1.53-.99,2.44-.98.98,0,1.9.42,2.57,1.14.59.55,1.02.59,1.57.18l.09-.07.75-.56c.43-.33.52-.95.19-1.38,0-.01-.02-.02-.02-.03"/><path class="cls-1" d="m372.78,125.52c-.13,0-.26-.02-.39-.02h0c-1.68-.02-3.32.44-4.76,1.31-.33.2-.54.54-.56.92,0,.15.03.3.1.44l.55,1.04c.3.55.63.78,1.18.45,1.05-.63,2.24-.96,3.46-.96h.02c2.14.09,3.8,1.89,3.71,4.03,0,.03,0,.07,0,.1v1.1c.07.48-.26.92-.74.99-.06,0-.12.01-.18,0h-7.88c-.97-.06-1.81.67-1.87,1.64,0,.12,0,.24.01.36v3.1c-.15,3.68,2.54,6.86,6.19,7.33h.11c.2.02.42.03.65.03h0c.24,0,.48-.01.72-.04.05,0,.09,0,.14-.02.21-.02.41-.05.61-.09h.04c.77-.16,1.5-.46,2.16-.89.17-.14.41-.14.58.19.13.26.39.42.68.41h1.1c.49.03.9-.34.93-.83,0-.06,0-.12,0-.17v-13.11c.16-3.82-2.75-7.08-6.56-7.35m3.07,16.03s-.02.05-.02.07c-.02.04-.04.08-.05.12-.34,1.03-1.12,1.86-2.12,2.27-.42.16-.86.24-1.31.24-2.14-.1-3.81-1.91-3.71-4.06,0-.03,0-.06,0-.08v-.03c0-.68.16-1.34.44-1.96.15-.07.32-.11.49-.11h5.56c.17,0,.34.03.49.11.29.62.44,1.3.44,1.99,0,.49-.08.97-.22,1.44"/><path class="cls-1" d="m454.82,147.41c.13,0,.26.02.38.02h0c1.68.02,3.32-.43,4.76-1.31.33-.19.55-.54.57-.92,0-.15-.04-.31-.11-.44l-.54-1.04c-.29-.55-.63-.78-1.18-.46-1.05.63-2.25.96-3.47.96h-.03c-2.14-.09-3.8-1.9-3.71-4.04,0-.03,0-.07,0-.1v-1.09c-.07-.48.27-.93.75-.99.06,0,.12-.01.18,0h7.87c.97.06,1.8-.67,1.87-1.64,0-.12,0-.24-.01-.35v-3.1c.15-3.67-2.53-6.85-6.18-7.33h-.11c-.22-.02-.43-.03-.66-.03h0c-.25,0-.48.02-.71.03-.05,0-.09,0-.14.02-.21.03-.4.05-.6.1h-.06c-.76.16-1.49.46-2.14.88-.17.15-.43.15-.6-.18-.13-.25-.39-.41-.68-.4h-1.09c-.48-.04-.89.32-.93.8,0,.06,0,.13,0,.19v13.11c-.17,3.82,2.73,7.09,6.55,7.35m-3.07-16.03s0-.05.02-.08c.01-.04.03-.08.05-.13.35-1.02,1.12-1.85,2.12-2.26.41-.16.85-.24,1.29-.24,2.14.09,3.8,1.9,3.71,4.04,0,.03,0,.07,0,.1v.02c0,.68-.16,1.35-.44,1.96-.15.08-.32.12-.49.11h-5.55c-.17,0-.34-.03-.49-.11-.28-.62-.43-1.3-.43-1.98,0-.49.08-.97.22-1.43"/></g></g><g class="cls-4"><path class="cls-1" d="m329.65,146.49l-.78-2.82h-.14c-.69,1.04-1.63,1.9-2.72,2.51-1.11.48-2.31.71-3.52.67-1.6.09-3.16-.49-4.3-1.61-1.1-1.25-1.65-2.89-1.55-4.55-.12-1.83.69-3.6,2.15-4.71,1.96-1.21,4.24-1.82,6.55-1.74l3.23-.11v-1.07c.08-1.04-.22-2.06-.84-2.9-.68-.69-1.63-1.04-2.6-.96-.94,0-1.87.15-2.76.46-.87.3-1.72.66-2.54,1.08l-1.29-3.07c1.05-.58,2.17-1.02,3.33-1.31,1.12-.29,2.26-.44,3.42-.45,1.94-.14,3.87.46,5.39,1.68,1.33,1.42,1.99,3.34,1.83,5.28v13.62h-2.86Zm-5.92-2.93c1.29.06,2.54-.41,3.47-1.31.92-.99,1.39-2.31,1.31-3.66v-1.76l-2.4.11c-1.43-.05-2.84.31-4.09,1.02-.87.64-1.35,1.69-1.27,2.77-.05.77.22,1.52.74,2.09.62.54,1.42.8,2.24.73h0Z"/><path class="cls-1" d="m354.49,146.49h-3.99v-12.43c.09-1.23-.22-2.45-.87-3.49-.68-.81-1.71-1.24-2.77-1.15-1.42-.12-2.81.49-3.69,1.61-.92,1.64-1.32,3.52-1.17,5.39v10.07h-3.98v-20.22h3.11l.56,2.65h.2c.56-.96,1.4-1.74,2.4-2.23,1.07-.53,2.25-.8,3.45-.78,4.49,0,6.73,2.47,6.73,7.4v13.18Z"/></g><g class="cls-4"><path class="cls-1" d="m481.33,146.69c-2.45.16-4.84-.83-6.45-2.68-2.98-4.76-2.94-10.81.1-15.53,1.68-1.89,4.15-2.9,6.67-2.74,1.85-.03,3.67.38,5.33,1.19l-1.2,3.45c-1.31-.62-2.72-.98-4.16-1.06-3.24,0-4.86,2.32-4.86,6.96-.12,1.79.3,3.57,1.21,5.11.81,1.14,2.15,1.79,3.54,1.71,1.77,0,3.51-.5,5.02-1.43v3.75c-.7.45-1.47.77-2.28.97-.96.21-1.95.31-2.93.3Z"/><path class="cls-1" d="m507.53,136.18c.17,2.78-.67,5.52-2.35,7.73-1.64,1.88-4.05,2.91-6.55,2.78-1.64.03-3.25-.41-4.63-1.28-1.37-.89-2.45-2.17-3.1-3.68-.75-1.75-1.12-3.65-1.08-5.56-.17-2.76.66-5.48,2.34-7.68,1.65-1.88,4.08-2.9,6.58-2.76,2.47-.11,4.84.94,6.43,2.83,1.67,2.17,2.51,4.87,2.37,7.61Zm-13.61,0c0,4.67,1.6,7,4.79,7s4.74-2.33,4.74-7c0-4.62-1.59-6.93-4.77-6.93-1.45-.11-2.84.58-3.63,1.79-.84,1.58-1.23,3.35-1.13,5.14Z"/><path class="cls-1" d="m527.86,146.33h-3.99v-12.47c.09-1.21-.2-2.42-.81-3.46-.6-.79-1.55-1.22-2.54-1.14-1.33-.1-2.62.52-3.37,1.62-.85,1.66-1.22,3.52-1.07,5.38v10.07h-3.98v-20.22h3.11l.56,2.65h.2c.51-.95,1.3-1.73,2.26-2.23,1-.53,2.12-.8,3.25-.78,2.39-.28,4.69,1,5.72,3.18h.26c.54-.99,1.35-1.81,2.34-2.35,1.06-.57,2.25-.86,3.45-.84,1.82-.16,3.62.51,4.88,1.83,1.14,1.62,1.68,3.59,1.53,5.57v13.19h-3.98v-12.47c.09-1.21-.2-2.42-.82-3.46-.6-.79-1.56-1.22-2.55-1.14-1.33-.1-2.61.49-3.4,1.57-.82,1.46-1.19,3.13-1.07,4.8v10.71Z"/><path class="cls-1" d="m554.71,146.69c-2.19.09-4.27-.95-5.51-2.76h-.24c.16,1.7.24,2.74.24,3.11v8.28h-3.97v-29.21h3.21c.09.38.28,1.28.56,2.71h.2c1.14-1.99,3.29-3.18,5.58-3.07,2.17-.08,4.23.95,5.45,2.74,2.62,4.81,2.6,10.63-.03,15.43-1.23,1.8-3.3,2.85-5.49,2.78Zm-.96-17.44c-1.33-.11-2.63.45-3.46,1.5-.84,1.45-1.22,3.12-1.09,4.79v.64c-.14,1.85.24,3.7,1.08,5.35.8,1.14,2.15,1.77,3.53,1.65,1.32.03,2.54-.67,3.18-1.83.84-1.6,1.22-3.41,1.12-5.21.11-1.78-.27-3.57-1.11-5.15-.68-1.13-1.93-1.8-3.25-1.74Z"/><path class="cls-1" d="m578.5,146.33l-.78-2.82h-.14c-.69,1.04-1.63,1.9-2.72,2.51-1.11.48-2.31.71-3.52.67-1.6.09-3.16-.49-4.3-1.61-1.1-1.25-1.65-2.89-1.55-4.55-.12-1.83.69-3.6,2.15-4.72,1.96-1.21,4.24-1.82,6.55-1.74l3.23-.11v-1.08c.08-1.03-.22-2.06-.84-2.9-.68-.69-1.63-1.04-2.6-.96-.94,0-1.87.15-2.76.46-.87.3-1.72.66-2.54,1.08l-1.29-3.07c1.05-.58,2.17-1.02,3.33-1.31,1.12-.29,2.26-.44,3.42-.45,1.94-.14,3.87.46,5.39,1.68,1.33,1.42,1.99,3.34,1.83,5.28v13.62h-2.87Zm-5.92-2.92c1.29.06,2.55-.41,3.48-1.31.91-.99,1.39-2.31,1.31-3.66v-1.78l-2.4.11c-1.43-.05-2.84.3-4.09,1.01-.87.64-1.35,1.69-1.28,2.77-.05.77.22,1.52.74,2.09.61.54,1.42.81,2.24.75h0Z"/><path class="cls-1" d="m603.35,146.33h-3.99v-12.43c.09-1.23-.22-2.45-.87-3.49-.68-.81-1.71-1.24-2.76-1.15-1.42-.12-2.81.49-3.69,1.61-.92,1.64-1.32,3.52-1.17,5.39v10.07h-3.98v-20.22h3.11l.56,2.65h.2c.56-.96,1.4-1.74,2.4-2.23,1.07-.53,2.25-.8,3.45-.78,4.49,0,6.73,2.47,6.73,7.4v13.18Z"/><path class="cls-1" d="m606.04,126.11h4.33l3.81,11.46c.54,1.49.92,3.04,1.15,4.61h.14c.14-.82.32-1.64.56-2.44.27-.96,1.7-5.5,4.3-13.63h4.3l-8,22.91c-1.45,4.2-3.88,6.31-7.27,6.31-.87,0-1.73-.1-2.57-.31v-3.4c.67.15,1.36.23,2.05.22,1.92,0,3.26-1.2,4.04-3.6l.69-1.9-7.51-20.22Z"/></g></g><g><path class="cls-1" d="m175.95,29.76v56.45h33.87v-11.26h-22.6v-11.34h17.01v-11.25h-17.01v-11.34h22.6v-11.26h-33.87Z"/><path class="cls-1" d="m255.97,29.76h-28.27v56.45h28.27c3.11-.02,5.61-2.55,5.59-5.66,0,0,0,0,0-.01v-45.19c.06-3.03-2.35-5.53-5.38-5.59-.07,0-.14,0-.21,0h0Zm-5.67,42.98v2.22h-11.34v-33.94h11.34v31.72Z"/><path class="cls-1" d="m279.44,65.07v21.14h11.26V29.76h-11.26v35.31Z"/><path class="cls-1" d="m152.48,29.76h-17.01c-3.03-.06-5.53,2.35-5.59,5.38,0,.07,0,.14,0,.21-.02-3.1-2.55-5.61-5.65-5.59,0,0-.01,0-.02,0h-16.93c-3.11-.03-5.64,2.47-5.67,5.58,0,0,0,0,0,.01v50.86h11.26v-45.19h11.34v45.19h11.26v-45.19h11.36v45.19h11.26v-50.86c.06-3.03-2.35-5.53-5.38-5.59-.07,0-.14,0-.22,0h0Z"/><path class="cls-1" d="m566.44,29.76h-28.27v56.45h11.26v-22.6h11.34v22.6h11.26v-22.6c.02-3.11-2.47-5.64-5.58-5.67,0,0,0,0-.01,0,3.03.06,5.53-2.35,5.59-5.38,0-.07,0-.14,0-.22v-17c.06-3.03-2.35-5.53-5.38-5.59-.07,0-.14,0-.21,0h0Zm-5.67,20.6v2h-11.34v-11.34h11.34v9.34Z"/><path class="cls-1" d="m514.7,29.76h-22.61c-3.1-.03-5.64,2.47-5.67,5.57,0,0,0,.01,0,.02v50.86h11.26v-22.6h11.33v22.6h11.26v-50.86c.06-3.03-2.35-5.53-5.38-5.59-.07,0-.14,0-.21,0h0Zm-5.68,20.6v2h-11.34v-11.34h11.34v9.34Z"/><path class="cls-1" d="m589.92,29.76v11.26h11.26v45.19h11.34v-45.19h11.26v-11.26h-33.87Z"/><path class="cls-1" d="m462.95,29.76h-17.01c-3.03-.06-5.53,2.34-5.6,5.37,0,.07,0,.14,0,.22-.02-3.1-2.55-5.61-5.65-5.59,0,0-.01,0-.02,0h-16.93c-3.11-.03-5.64,2.47-5.67,5.58,0,0,0,0,0,.01v50.86h11.26v-45.19h11.34v45.19h11.26v-45.19h11.34v45.19h11.26v-50.86c.06-3.03-2.35-5.53-5.38-5.59-.07,0-.14,0-.22,0h0Z"/><path class="cls-1" d="m388.6,29.76h-22.6c-3.1-.03-5.64,2.47-5.67,5.57,0,0,0,.01,0,.02v22.6c-.02,1.53.59,3,1.68,4.06,1.05,1.06,2.49,1.64,3.98,1.61h16.93v11.34h-11.34v-5.67h-11.26v11.26c.04,3.11,2.56,5.63,5.67,5.67h22.6c3.11-.02,5.61-2.55,5.59-5.66,0,0,0,0,0-.01v-22.6c.06-3.03-2.35-5.53-5.38-5.59-.07,0-.14,0-.22,0h-17.01v-11.34h11.34v5.67h11.26v-11.34c.06-3.03-2.35-5.53-5.38-5.59-.07,0-.14,0-.21,0h0Z"/><path class="cls-1" d="m336.86,29.76h-22.6c-3.11-.02-5.64,2.47-5.67,5.58,0,0,0,0,0,.01v50.86h11.26v-22.6h11.34v22.6h11.26v-50.86c.06-3.03-2.35-5.53-5.38-5.59-.07,0-.14,0-.21,0h0Zm-5.67,20.6v2h-11.34v-11.34h11.34v9.34Z"/></g><path class="cls-2" d="m85.75,41.61c.29-2.53.52-4.42.68-5.67h-5.9l.71-5.75h-5.78c-.32,2.55-.54,4.47-.67,5.75h-5.56c.32-2.55.55-4.47.71-5.75h-5.79c-.32,2.53-.54,4.43-.68,5.71h-5.85c-.29,2.53-.52,4.42-.68,5.67h5.86c-.3,2.4-.52,4.2-.66,5.4h-5.86c-.29,2.53-.52,4.42-.68,5.67h5.9c-.32,2.58-.55,4.51-.71,5.78h5.75c.32-2.55.55-4.48.71-5.78h5.55c-.31,2.58-.55,4.51-.71,5.78h5.75l.71-5.75h5.86c.3-2.5.51-4.38.65-5.63h-5.83c.28-2.42.48-4.24.62-5.44h5.9Zm-12.31,5.4h-5.52l.62-5.4h5.56c-.3,2.41-.52,4.21-.66,5.41h0Z"/></g></g></g></svg>